<?xml version="1.0" encoding="UTF-8" standalone="no"?><!DOCTYPE svg PUBLIC "-//W3C//DTD SVG 1.1//EN" "http://www.w3.org/Graphics/SVG/1.1/DTD/svg11.dtd"><svg width="100%" height="100%" viewBox="0 0 1080 1080" version="1.1" xmlns="http://www.w3.org/2000/svg" xmlns:xlink="http://www.w3.org/1999/xlink" xml:space="preserve" xmlns:serif="http://www.serif.com/" style="fill-rule:evenodd;clip-rule:evenodd;stroke-linejoin:round;stroke-miterlimit:2;"><g><g id="flow"><path d="M246.607,436.722c8.509,-118.671 95.529,-212.54 206.663,-236.331c-41.104,38.35 -68.225,91.612 -72.397,151.964c-9.032,126.673 86.583,236.863 213.298,245.498c58.321,4.337 113.608,-13.837 156.991,-47.492c-16.682,43.195 -44.791,80.628 -79.49,108.841c-51.93,-0.375 -104.413,4.024 -156.652,13.279c-0.398,-0.047 -0.795,-0.093 -1.638,0.21c-39.409,6.317 -76.646,11.266 -110.473,14.603c-4.863,0.245 -9.726,0.489 -14.634,1.128c-90.47,-46.74 -149.331,-143.806 -141.668,-251.7Z" style="fill:#ffcb15;fill-rule:nonzero;"/><path d="M1029.77,791.667c-94.97,-60.155 -241.341,-90.401 -242.487,-90.941c-89.91,-16.86 -182.316,-19.105 -275.584,-6.945l-2.83,0.075c-41.257,4.89 -80.3,8.026 -115.977,9.936l-0.397,-0.046c-12.51,0.164 -25.462,0.677 -37.924,0.444c-118.584,1.171 -272.107,-40.385 -335.196,-121.826l25.24,-19.637c56.104,72.173 201.557,110.371 309.974,110.038c12.11,-0.212 24.619,-0.372 37.129,-0.536c35.675,-1.912 74.317,-5.088 115.577,-9.982l2.43,-0.119c95.698,-12.283 191.332,-10.069 283.581,7.464c1.192,0.139 152.733,30.986 254.09,95.107l-17.626,26.968Zm-683.917,-8.714c12.111,-0.208 25.018,-0.324 37.923,-0.442l0.397,0.046c35.675,-1.91 74.718,-5.043 115.977,-9.936l2.828,-0.075c92.872,-12.207 185.674,-9.915 275.582,6.945c9.494,1.5 18.901,3.802 28.302,6.1c40.886,8.765 81.755,21.15 121.505,36.23l11.547,-30.085c-41.299,-15.664 -84.109,-28.679 -125.786,-37.536c-9.807,-2.342 -19.649,-4.291 -29.498,-6.236c-92.243,-17.537 -187.878,-19.749 -283.578,-7.466l-2.432,0.121c-41.257,4.886 -79.901,8.07 -115.578,9.982c-12.509,0.162 -25.062,0.724 -37.128,0.534c-113.28,0.577 -195.312,-18.191 -244.902,-56.168l-19.476,25.544c39.24,29.929 95.811,49.373 168.565,57.801c29.02,3.359 61.102,4.657 95.752,4.641Zm-9.026,77.92c12.112,-0.207 24.619,-0.372 37.923,-0.441l0.397,0.046c35.676,-1.913 74.718,-5.044 115.977,-9.934l2.828,-0.078c85.088,-11.093 263.217,-4.561 335.507,18.317l9.601,-30.717c-77.364,-24.271 -257.88,-31.08 -347.431,-19.696l-2.43,0.119c-41.259,4.888 -79.902,8.07 -115.577,9.981c-12.51,0.166 -25.065,0.723 -37.129,0.536c-68.553,0.52 -126.55,-6.599 -171.7,-20.292l-9.602,30.721c24.891,7.718 53.241,13.416 84.649,17.054c29.461,3.008 61.893,4.751 96.987,4.384Z" style="fill:#222df8;fill-rule:nonzero;"/><path d="M1029.77,781.667c-94.97,-60.155 -241.341,-90.401 -242.487,-90.941c-89.91,-16.86 -182.316,-19.105 -275.584,-6.945l-2.83,0.075c-41.257,4.89 -80.3,8.026 -115.977,9.936l-0.397,-0.046c-12.51,0.164 -25.462,0.677 -37.924,0.444c-118.584,1.171 -272.107,-40.385 -335.196,-121.826l25.24,-19.637c56.104,72.173 201.557,110.371 309.974,110.038c12.11,-0.212 24.619,-0.372 37.129,-0.536c35.675,-1.912 74.317,-5.088 115.577,-9.982l2.43,-0.119c95.698,-12.283 191.332,-10.069 283.581,7.464c1.192,0.139 152.733,30.986 254.09,95.107l-17.626,26.968Zm-683.917,-8.714c12.111,-0.208 25.018,-0.324 37.923,-0.442l0.397,0.046c35.675,-1.91 74.718,-5.043 115.977,-9.936l2.828,-0.075c92.872,-12.207 185.674,-9.915 275.582,6.945c9.494,1.5 18.901,3.802 28.302,6.1c40.886,8.765 81.755,21.15 121.505,36.23l11.547,-30.085c-41.299,-15.664 -84.109,-28.679 -125.786,-37.536c-9.807,-2.342 -19.649,-4.291 -29.498,-6.236c-92.243,-17.537 -187.878,-19.749 -283.578,-7.466l-2.432,0.121c-41.257,4.886 -79.901,8.07 -115.578,9.982c-12.509,0.162 -25.062,0.724 -37.128,0.534c-113.28,0.577 -195.312,-18.191 -244.902,-56.168l-19.476,25.544c39.24,29.929 95.811,49.373 168.565,57.801c29.02,3.359 61.102,4.657 95.752,4.641Zm-9.026,77.92c12.112,-0.207 24.619,-0.372 37.923,-0.441l0.397,0.046c35.676,-1.913 74.718,-5.044 115.977,-9.934l2.828,-0.078c85.088,-11.093 263.217,-4.561 335.507,18.317l9.601,-30.717c-77.364,-24.271 -257.88,-31.08 -347.431,-19.696l-2.43,0.119c-41.259,4.888 -79.902,8.07 -115.577,9.981c-12.51,0.166 -25.065,0.723 -37.129,0.536c-68.553,0.52 -126.55,-6.599 -171.7,-20.292l-9.602,30.721c24.891,7.718 53.241,13.416 84.649,17.054c29.461,3.008 61.893,4.751 96.987,4.384Z" style="fill:#3c4952;fill-rule:nonzero;"/></g></g></svg>